# xmcd CD database file
#
# Track frame offsets:
#	187
#	28892
#	55792
#	91170
#	112470
#	134617
#	164967
#	183825
#	213065
#
# Disc length: 3130 seconds
#
# Revision: 5
# Processed by: cddbd v1.5.1PL0 Copyright (c) Steve Scherf et al.
# Submitted via: CDex 1.51
#
DISCID=840c3809
DTITLE=BLUE MURDER - Blue Murder
DYEAR=1989
DGENRE=Hard Rock
TTITLE0=Riot
TTITLE1=Sex Child
TTITLE2=Valley Of The Kings
TTITLE3=Jelly Roll
TTITLE4=Blue Murder
TTITLE5=Out Of Love
TTITLE6=Billy
TTITLE7=Ptolemy
TTITLE8=Black-Hearted Woman
EXTD=YEAR: 1989
EXTT0=
EXTT1=
EXTT2=
EXTT3=
EXTT4=
EXTT5=
EXTT6=
EXTT7=
EXTT8=
PLAYORDER=
